<svg width="45" height="45" viewBox="0 0 45 45" fill="none" xmlns="http://www.w3.org/2000/svg">
<g id="Face">
<path id="Combined Shape" fill-rule="evenodd" clip-rule="evenodd" d="M31.41 12.5955C34.5417 11.9486 36.3861 8.71698 35.3502 5.69159C34.496 3.19651 31.8728 1.6996 29.2901 2.23297C26.1584 2.87984 24.314 6.1115 25.3499 9.13689C26.2043 11.6319 28.8273 13.1291 31.41 12.5955ZM9.47322 18.6239C12.6139 17.9753 14.4637 14.7343 13.4248 11.7004C12.568 9.19823 9.93746 7.69695 7.34735 8.23186C4.20675 8.88069 2.35707 12.1213 3.39601 15.1553C4.25261 17.6575 6.88339 19.1589 9.47322 18.6239ZM7.11485 31.4441C11.4476 38.1323 19.5234 41.2142 27.2107 39.1133C34.898 37.0123 40.2837 30.2513 40.6124 22.2891L33.2096 21.9835C33.0144 26.7077 29.8187 30.7195 25.2574 31.9661C20.696 33.2127 15.904 31.384 13.3332 27.4158L7.11485 31.4441Z" fill="white"/>
</g>
</svg>
