<svg width="76" height="73" viewBox="0 0 76 73" fill="none" xmlns="http://www.w3.org/2000/svg">
<g id="Frame" clip-path="url(#clip0_1016_174)">
<path id="Vector" d="M26.793 46.6398C23.5359 42.368 22.9223 36.3792 25.1985 31.0112C27.4747 25.6432 32.1909 21.9361 37.5141 21.2938C37.8633 21.2629 38.2028 21.1621 38.5124 20.9974C38.8221 20.8327 39.0957 20.6074 39.3169 20.335C39.538 20.0626 39.7023 19.7485 39.8001 19.4115C39.8978 19.0744 39.9269 18.7211 39.8857 18.3727C39.8445 18.0243 39.7338 17.6879 39.5602 17.3832C39.3866 17.0786 39.1536 16.8121 38.875 16.5994C38.5964 16.3868 38.278 16.2323 37.9386 16.1453C37.5991 16.0582 37.2456 16.0403 36.8989 16.0926C29.7125 16.9521 23.3817 21.8886 20.3799 28.9679C17.378 36.0473 18.2325 44.0567 22.6272 49.8225C22.8356 50.0961 23.0959 50.3259 23.3932 50.4987C23.6904 50.6715 24.0189 50.7839 24.3597 50.8296C24.7005 50.8753 25.047 50.8533 25.3795 50.765C25.712 50.6766 26.0239 50.5236 26.2974 50.3146C26.571 50.1056 26.8008 49.8448 26.9737 49.547C27.1466 49.2492 27.2593 48.9204 27.3054 48.5791C27.3514 48.2379 27.3298 47.891 27.2419 47.5582C27.154 47.2255 27.0015 46.9134 26.793 46.6398Z" fill="#8BFF55"/>
<path id="Vector_2" d="M55.57 43.8895C58.5844 36.7804 57.7163 28.7827 53.3015 23.0127C52.8794 22.4614 52.2556 22.1008 51.5674 22.0102C50.8792 21.9196 50.1829 22.1065 49.6318 22.5297C49.0806 22.9529 48.7197 23.5777 48.6285 24.2668C48.5372 24.9558 48.7231 25.6525 49.1453 26.2038C52.415 30.4766 53.0307 36.4708 50.7514 41.8462C48.4374 47.3033 43.4367 51.135 38.0055 51.6088C37.3136 51.6691 36.6737 52.0021 36.2265 52.5345C35.7794 53.0669 35.5616 53.755 35.6211 54.4476C35.6806 55.1401 36.0125 55.7803 36.5438 56.2274C37.0751 56.6745 37.7623 56.8917 38.4542 56.8314C45.901 56.183 52.4595 51.225 55.57 43.8895Z" fill="#8BFF55"/>
<path id="Vector_3" d="M18.6922 52.1088C13.5441 45.0774 12.5481 35.5145 16.0945 27.1507C19.6883 18.6755 27.3603 12.7311 36.1128 11.6333C36.454 11.5905 36.7835 11.4808 37.0825 11.3106C37.3815 11.1403 37.6441 10.9128 37.8554 10.6411C38.0667 10.3693 38.2224 10.0586 38.3138 9.72673C38.4052 9.39482 38.4304 9.04817 38.388 8.70666C38.3456 8.36515 38.2364 8.03539 38.0667 7.73626C37.897 7.43714 37.67 7.17449 37.3987 6.96329C37.1275 6.75209 36.8173 6.59653 36.4858 6.5054C36.1544 6.41428 35.8082 6.38941 35.467 6.43224C24.8666 7.76253 15.5969 14.9171 11.2759 25.1074C7.01163 35.1641 8.24204 46.7009 14.469 55.2102C14.8813 55.7648 15.4961 56.1336 16.1793 56.2359C16.8626 56.3383 17.5589 56.166 18.1163 55.7566C18.6738 55.3472 19.0471 54.734 19.155 54.0506C19.2629 53.3673 19.0965 52.6693 18.6922 52.1088Z" fill="#8BFF55"/>
<path id="Vector_4" d="M61.1825 17.2487C60.7544 16.7198 60.1374 16.3787 59.462 16.2977C58.7866 16.2167 58.1059 16.4022 57.5642 16.8148C57.0225 17.2275 56.6624 17.8348 56.56 18.5083C56.4577 19.1817 56.6213 19.8682 57.0161 20.4224C62.3885 27.4919 63.4695 37.1741 59.849 45.7124C56.2726 54.1468 48.6402 60.0905 39.9312 61.2197C39.2426 61.3093 38.6174 61.6691 38.1932 62.2198C37.7689 62.7706 37.5805 63.4672 37.6692 64.1564C37.7579 64.8457 38.1166 65.4711 38.6663 65.8952C39.216 66.3192 39.9117 66.5071 40.6003 66.4176C51.146 65.051 60.3671 57.8977 64.6676 47.7557C69.0238 37.4927 67.6913 25.7943 61.1825 17.2487Z" fill="#8BFF55"/>
</g>
<defs>
<clipPath id="clip0_1016_174">
<rect width="58" height="54" fill="white" transform="translate(21.8418 0.19043) rotate(22.9782)"/>
</clipPath>
</defs>
</svg>
