<svg width="52" height="53" viewBox="0 0 52 53" fill="none" xmlns="http://www.w3.org/2000/svg">
<g id="Frame 815">
<g clip-path="url(#clip0_1023_16529)">
<rect id="Rectangle 114" x="2" y="2.93066" width="47" height="48" rx="11" fill="#DDEAFF"/>
<g id="Group 2835">
<path id="Vector 388" d="M14 34.9307C17.7582 37.1945 27.6196 40.364 37 34.9307" stroke="#0064FA" stroke-width="3" stroke-linecap="round"/>
<g id="Group 727">
<path id="Vector" d="M15.5916 20.5805C12.5821 19.4065 14.2369 14.6352 17.2657 14.9451C22.0365 15.4429 19.9753 22.5717 15.5916 20.5805Z" fill="#2E7CF6"/>
<path id="Vector 389" d="M26 29.9307C27.3333 29.9307 31 29.4592 31 28.4307C31 27.1449 28 23.4307 26.5 20.9307" stroke="#0064FA" stroke-width="3" stroke-linecap="round"/>
<path id="Vector_2" d="M33.5916 20.5805C30.5821 19.4065 32.2369 14.6352 35.2657 14.9451C40.0365 15.4429 37.9753 22.5717 33.5916 20.5805Z" fill="#2E7CF6"/>
</g>
</g>
</g>
<rect x="1" y="1.93066" width="50" height="50" stroke="#F11E37" stroke-width="2"/>
</g>
<defs>
<clipPath id="clip0_1023_16529">
<rect x="2" y="2.93066" width="48" height="48" fill="white"/>
</clipPath>
</defs>
</svg>
