<svg width="325" height="602" viewBox="0 0 325 602" fill="none" xmlns="http://www.w3.org/2000/svg">
<path d="M263.986 600.896C263.225 601.252 262.39 600.915 262.122 600.143L257.746 587.577C257.477 586.806 257.877 585.893 258.638 585.538C259.399 585.182 260.234 585.519 260.503 586.29L264.392 597.46L275.42 592.312C276.181 591.957 277.016 592.294 277.284 593.065C277.553 593.836 277.153 594.749 276.392 595.105L263.986 600.896ZM204.001 252.333L202.56 252.215L204.001 252.333ZM262.182 598.968C305.426 500.106 321.263 441.277 321.378 405.59C321.435 387.8 317.583 375.872 311.367 367.586C305.143 359.289 296.433 354.488 286.478 351.205C276.481 347.909 265.421 346.194 254.447 343.934C243.546 341.689 232.79 338.912 223.767 333.458C214.696 327.976 207.396 319.801 203.381 306.849C199.381 293.944 198.673 276.397 202.56 252.215L205.442 252.451C201.599 276.356 202.359 293.364 206.169 305.657C209.966 317.905 216.821 325.574 225.394 330.756C234.015 335.967 244.393 338.676 255.26 340.914C266.054 343.138 277.396 344.904 287.582 348.263C297.809 351.636 307.062 356.665 313.726 365.548C320.398 374.442 324.359 387.046 324.301 405.315C324.184 441.746 308.074 501.144 264.819 600.032L262.182 598.968ZM202.56 252.215C209.861 206.802 198.517 176.871 178.183 155.344C157.761 133.723 128.201 120.501 98.8746 108.798C69.6875 97.1503 40.6074 86.9739 21.768 71.3954C12.3054 63.5707 5.32531 54.3111 2.20306 42.7143C-0.921441 31.1091 -0.136701 17.3337 5.63234 0.597626L8.37084 1.40211C2.76453 17.6661 2.09587 30.7604 5.02191 41.6285C7.95022 52.505 14.5246 61.3223 23.7025 68.9116C42.1442 84.1612 70.6889 94.1618 100.127 105.91C129.426 117.602 159.491 130.995 180.35 153.077C201.297 175.254 212.891 206.113 205.442 252.451L202.56 252.215Z" fill="url(#paint0_linear_753_26990)"/>
<defs>
<linearGradient id="paint0_linear_753_26990" x1="87.5036" y1="315.148" x2="298.487" y2="273.069" gradientUnits="userSpaceOnUse">
<stop stop-color="#DBA6F4"/>
<stop offset="1" stop-color="#A981FE"/>
</linearGradient>
</defs>
</svg>
