<svg width="61" height="282" viewBox="0 0 61 282" fill="none" xmlns="http://www.w3.org/2000/svg">
<path id="Arrow" d="M47.0659 0.65941C47.8928 0.608865 48.6041 1.23822 48.6546 2.06511L49.4781 15.54C49.5287 16.3668 48.8993 17.0781 48.0724 17.1287C47.2456 17.1792 46.5343 16.5499 46.4837 15.723L45.7517 3.74532L33.774 4.47736C32.9472 4.52789 32.2359 3.89854 32.1853 3.07166C32.1348 2.24477 32.7642 1.53348 33.591 1.48294L47.0659 0.65941ZM59.9434 278.383C60.6449 278.824 60.8564 279.75 60.4157 280.451C59.975 281.153 59.0491 281.364 58.3476 280.923L59.9434 278.383ZM48.2808 3.15059C17.64 37.7805 2.06354 95.0354 3.48542 149.57C4.90859 204.154 23.3304 255.383 59.9434 278.383L58.3476 280.923C20.4642 257.125 1.91947 204.611 0.486443 149.648C-0.947881 94.6368 14.7298 36.5423 46.034 1.16263L48.2808 3.15059Z" fill="url(#paint0_linear_1023_16451)"/>
<defs>
<linearGradient id="paint0_linear_1023_16451" x1="96.0699" y1="61.9537" x2="-6.14233" y2="242.741" gradientUnits="userSpaceOnUse">
<stop stop-color="#DBA6F4"/>
<stop offset="1" stop-color="#A981FE"/>
</linearGradient>
</defs>
</svg>
