<svg width="65" height="65" viewBox="0 0 65 65" fill="none" xmlns="http://www.w3.org/2000/svg">
<g id="Figma">
<path id="Union" fill-rule="evenodd" clip-rule="evenodd" d="M22.4264 0.226562H42.9061C49.2655 0.226562 54.4262 5.38723 54.4262 11.7466C54.4262 16.2032 51.8919 20.0709 48.1867 21.9865C51.8919 23.9022 54.4262 27.77 54.4262 32.2265C54.4262 38.5859 49.2655 43.7466 42.9061 43.7466C39.2886 43.7466 36.059 42.0767 33.9466 39.4663V52.7065C33.9466 59.0659 28.7858 64.2266 22.4264 64.2266C16.067 64.2266 10.9062 59.0659 10.9062 52.7065C10.9062 48.25 13.4406 44.3821 17.1459 42.4664C13.4406 40.5508 10.9062 36.683 10.9062 32.2265C10.9062 27.77 13.4406 23.9022 17.1458 21.9865C13.4406 20.0709 10.9062 16.2032 10.9062 11.7466C10.9062 5.38723 16.067 0.226562 22.4264 0.226562ZM13.4662 11.7466C13.4662 6.8011 17.4808 2.78656 22.4264 2.78656H31.3859V20.7064H22.4264L22.3986 20.7064C17.4657 20.6914 13.4662 16.6829 13.4662 11.7466ZM31.3866 32.1046C31.3861 32.1452 31.3859 32.1858 31.3859 32.2265C31.3859 32.2672 31.3861 32.3078 31.3866 32.3483V41.1863H22.4264C17.4808 41.1865 13.4662 37.172 13.4662 32.2265C13.4662 27.2901 17.4659 23.2813 22.3989 23.2664L22.4264 23.2665H31.3859L31.3866 32.1046ZM33.9466 32.3338V32.1192C34.004 27.2352 37.9764 23.2861 42.8694 23.2665H42.9061C42.9153 23.2665 42.9245 23.2665 42.9336 23.2664C47.8666 23.2813 51.8662 27.2901 51.8662 32.2265C51.8662 37.172 47.8517 41.1866 42.9061 41.1866C37.9963 41.1866 34.0041 37.23 33.9466 32.3338ZM35.6669 23.2665C35.0349 23.7779 34.458 24.3547 33.9466 24.9867V23.2665H35.6669ZM42.9339 20.7064C42.9246 20.7064 42.9154 20.7064 42.9061 20.7064C42.8921 20.7064 42.8781 20.7064 42.8641 20.7065H33.9466V2.78656H42.9061C47.8517 2.78656 51.8662 6.8011 51.8662 11.7466C51.8662 16.6829 47.8668 20.6914 42.9339 20.7064ZM22.4264 43.7464C17.4808 43.7464 13.4662 47.7609 13.4662 52.7065C13.4662 57.652 17.4808 61.6666 22.4264 61.6666C27.372 61.6666 31.3866 57.652 31.3866 52.7065V43.7464H22.4264Z" fill="white"/>
</g>
</svg>
