<svg width="64" height="65" viewBox="0 0 64 65" fill="none" xmlns="http://www.w3.org/2000/svg">
<g id="Notion" clip-path="url(#clip0_981_16840)">
<path id="Vector" fill-rule="evenodd" clip-rule="evenodd" d="M11.9933 11.616C13.9737 13.2249 14.7166 13.1022 18.4354 12.854L53.4939 10.7489C54.2375 10.7489 53.6192 10.0071 53.3712 9.88389L47.5487 5.67469C46.4331 4.80852 44.9467 3.8166 42.098 4.06473L8.15077 6.54073C6.91271 6.66348 6.66545 7.28251 7.15847 7.77866L11.9933 11.616ZM14.0982 19.7864V56.674C14.0982 58.6565 15.0889 59.3981 17.3186 59.2755L55.8479 57.046C58.0788 56.9234 58.3273 55.5598 58.3273 53.9494V17.3092C58.3273 15.7014 57.7088 14.8344 56.3432 14.9581L16.0797 17.3092C14.5937 17.4341 14.0981 18.1774 14.0981 19.7864H14.0982ZM52.1342 21.7651C52.3812 22.8803 52.1342 23.9944 51.0169 24.1198L49.1606 24.4897V51.7225C47.5488 52.5888 46.0624 53.0841 44.8239 53.0841C42.8409 53.0841 42.3442 52.4647 40.8589 50.609L28.7158 31.5458V49.9899L32.5584 50.857C32.5584 50.857 32.5584 53.0841 29.4582 53.0841L20.9118 53.5798C20.6635 53.0841 20.9118 51.8473 21.7787 51.5995L24.0089 50.9814V26.5947L20.9124 26.3465C20.664 25.2314 21.2826 23.6234 23.0183 23.4987L32.1866 22.8806L44.8239 42.1919V25.1086L41.6018 24.7388C41.3546 23.3755 42.3442 22.3856 43.5833 22.2629L52.1342 21.7651ZM5.3005 3.19869L40.611 0.598318C44.9472 0.226424 46.0629 0.475564 48.7883 2.45528L60.0599 10.3775C61.9197 11.7399 62.5396 12.1107 62.5396 13.5958V57.046C62.5396 59.7691 61.5476 61.3796 58.0794 61.626L17.0732 64.1022C14.4697 64.2264 13.2307 63.8553 11.8672 62.1213L3.56667 51.3517C2.07947 49.3693 1.46094 47.8862 1.46094 46.1511V7.52965C1.46094 5.30279 2.45324 3.4452 5.3005 3.19869Z" fill="white"/>
</g>
<defs>
<clipPath id="clip0_981_16840">
<rect width="64" height="64" fill="white" transform="translate(0 0.226562)"/>
</clipPath>
</defs>
</svg>
