<svg width="67" height="65" viewBox="0 0 67 65" fill="none" xmlns="http://www.w3.org/2000/svg">
<g id="Frame" clip-path="url(#clip0_1019_16441)">
<path id="Vector" d="M44.6213 34.3362C44.9322 32.2572 45.1022 30.5672 44.8791 28.735L41.8214 12.7393C41.7312 11.5669 41.7135 10.3907 41.7683 9.21711L41.4829 10.0059C38.407 12.3957 37.0054 16.2686 37.6994 20.4599L39.7833 33.0373C40.1714 34.9626 40.0243 36.9531 39.3577 38.7949C38.6911 40.6367 37.5303 42.2603 35.9999 43.4913L35.324 44.1388C35.7482 42.8758 35.7788 41.513 35.4117 40.2275L33.4403 28.5679L32.0298 21.4589C31.6628 20.1743 31.6931 18.8124 32.1166 17.5503L31.4464 18.1819C28.3679 20.5707 26.9662 24.4437 27.663 28.6359L30.1373 41.3547C30.4436 45.4056 29.04 49.2838 26.3539 51.8086L25.678 52.4561C25.7355 51.2826 25.7177 50.1062 25.6249 48.9339L22.5672 32.9382C22.1419 30.8015 22.3282 28.5932 23.1047 26.564C14.1891 25.5259 7.03361 28.1817 5.2085 33.2247C2.5441 40.5866 11.3978 50.3538 25.0873 55.3082C38.3891 60.1223 51.4423 58.2776 54.1047 50.9209C55.9318 45.8727 52.1363 39.2446 44.6213 34.3362Z" fill="white"/>
</g>
<defs>
<clipPath id="clip0_1019_16441">
<rect width="52" height="49" fill="white" transform="translate(17.125 0.29834) rotate(19.8959)"/>
</clipPath>
</defs>
</svg>
