<svg width="190" height="190" viewBox="0 0 190 190" fill="none" xmlns="http://www.w3.org/2000/svg">
<g id="Group 2841">
<g id="Group 2840">
<rect id="Rectangle 116" x="44.9014" y="59.8342" width="28.736" height="25.76" rx="12.88" stroke="black" stroke-width="4"/>
<rect id="Rectangle 117" x="85.8213" y="59.8342" width="28.736" height="25.76" rx="12.88" stroke="black" stroke-width="4"/>
<path id="Vector 398" d="M73.7773 68.6223C76.3813 66.8863 82.4077 64.6047 85.6813 69.3663" stroke="black" stroke-width="4"/>
<path id="Vector 399" d="M53.3174 73.761C56.7429 67.4021 63.0669 67.025 65.9654 74.9463" stroke="black" stroke-width="4" stroke-linecap="round"/>
<path id="Vector 400" d="M94.2373 73.761C97.6628 67.4021 103.987 67.025 106.885 74.9463" stroke="black" stroke-width="4" stroke-linecap="round"/>
<path id="Vector 405" d="M94.1521 109.074C87.3691 115.719 74.3759 116.635 68.0854 108.968" stroke="white" stroke-width="4" stroke-linecap="round"/>
<line id="Line 3" x1="116.577" y1="68.7709" x2="128.982" y2="70.4624" stroke="black" stroke-width="4" stroke-linecap="round"/>
<path id="Vector 401" d="M47.3655 82.3862C42.5295 96.2742 42.3807 124.794 80.4735 127.77C118.566 130.746 129.082 104.458 129.578 90.9422" stroke="black" stroke-width="4" stroke-linecap="round"/>
<path id="Vector 402" d="M87.1686 93.9182C86.0526 96.3982 81.8118 100.837 73.7766 98.7542C65.7414 96.671 69.1886 85.7342 71.9166 80.5262" stroke="black" stroke-width="4" stroke-linecap="round"/>
<path id="Vector 404" d="M129.577 90.9423L121.347 93.3136C112.316 95.9157 102.818 96.4643 93.5471 94.9193L87.541 93.9183" stroke="black" stroke-width="4" stroke-linecap="round"/>
<path id="Vector 403" d="M68.5689 92.8022L67.2399 93.144C59.7997 95.0572 51.8969 93.7156 45.5049 89.4542V89.4542" stroke="black" stroke-width="4" stroke-linecap="round"/>
<path id="Vector 406" d="M130.321 75.6903C130.569 72.2183 133.372 65.4975 142.597 66.3903C154.129 67.5063 143.713 103.962 130.321 90.5703" stroke="black" stroke-width="4" stroke-linecap="round"/>
<path id="Vector 407" d="M137.763 52.6265C133.175 50.1465 108.673 45.1121 47.3672 44.8145C26.5564 44.7135 24.0158 38.5089 23.5946 34.7702C22.465 24.7419 73.456 14.0199 106.515 47.1672" stroke="black" stroke-width="4" stroke-linecap="round"/>
<path id="Vector 408" d="M57.7812 25.0983C60.7573 21.3783 72.0661 14.0871 93.4933 14.6823C120.277 15.4263 141.109 31.0503 137.761 66.7623" stroke="black" stroke-width="4" stroke-linecap="round"/>
<path id="Vector 409" d="M49.5969 61.9263C48.8529 59.8183 47.5881 53.5191 48.4809 45.1863" stroke="black" stroke-width="4" stroke-linecap="round"/>
<path id="Vector 410" d="M49.9697 53.7422C53.1937 52.2542 61.8737 50.3942 70.8017 54.8582" stroke="black" stroke-width="4" stroke-linecap="round"/>
<path id="Vector 411" d="M89.7734 53.5648C92.9974 52.0768 101.677 50.2168 110.605 54.6808" stroke="black" stroke-width="4" stroke-linecap="round"/>
<path id="Vector 412" d="M139.993 76.0623C137.885 77.0543 134.413 80.1543 137.389 84.6183" stroke="black" stroke-width="4" stroke-linecap="round"/>
</g>
<path id="Vector 413" d="M79.7473 128.48C79.2513 132.076 81.9049 139.417 96.4873 140.012C111.07 140.607 112.483 128.108 111.368 121.784" stroke="black" stroke-width="4" stroke-linecap="round"/>
<path id="Vector 414" d="M30.6436 159.356C34.6116 150.676 50.062 133.316 80.1196 133.316" stroke="black" stroke-width="4" stroke-linecap="round"/>
<path id="Vector 415" d="M112.112 128.48C123.024 127.984 147.973 133.539 160.472 159.728" stroke="black" stroke-width="4" stroke-linecap="round"/>
<path id="Ellipse 1" d="M24.4207 38.084C13.7231 52.5626 6.34237 70.5399 2.75802 90.3956C2.2062 93.4524 1.9617 96.5626 2.11497 99.665C4.5453 148.86 45.2019 188 95 188C146.362 188 188 146.362 188 95C188 43.6375 146.362 2 95 2C70.3116 2 49.675 11.3684 34.0316 26.924" stroke="black" stroke-width="4" stroke-linecap="round"/>
</g>
</svg>
