<svg width="216" height="216" viewBox="0 0 216 216" fill="none" xmlns="http://www.w3.org/2000/svg">
<g id="Group 2842">
<circle id="Ellipse 2" cx="108" cy="108" r="108" fill="url(#paint0_linear_1016_125)"/>
<circle id="Ellipse 3" cx="108" cy="108" r="93" fill="url(#paint1_linear_1016_125)"/>
<path id="Vector 417" d="M70 37.9999H53.5C55.5 31.4999 70 11 132 18.4998C132.236 18.5284 132.466 18.608 132.703 18.6662C154.903 24.1238 197.042 53.4849 201 98.9998C204.2 135.8 184.333 163.666 174 173C164.8 148.6 137.5 141.5 125 141V135.5C135 131.5 141.833 113.5 144 105C151.5 109 157 105.5 159.5 91.4998C161.5 80.2998 155.333 77.8332 152 77.9998C155.333 66.6665 154.1 41.4999 122.5 31.4999C90.9 21.4999 74.3333 31.6666 70 37.9999Z" fill="url(#paint2_linear_1016_125)"/>
<path id="Vector 418" d="M92.9998 147.5C65.7998 145.9 47.9997 164.167 42.4998 173.5C33.3332 163 15 135.6 15 110C15 84.4 30.6665 60.6667 38.4998 52C38.0998 56.4 53.6664 58.5 61.4997 59L63.4997 76C55.8997 81.6 58.9997 91.3333 61.4997 95.5C49.8997 129.9 77.6664 140.167 92.9998 141V147.5Z" fill="url(#paint3_linear_1016_125)"/>
<path id="Vector 419" d="M58 84.4999C58 73.6999 68.3333 72.6666 73.5 73.4999C77.5 73.1666 85.7 75.1 86.5 85.5C87.3 95.9 76.8333 98.8333 71.5 99C67 98.6666 58 95.2999 58 84.4999Z" fill="white"/>
<path id="Vector 421" d="M94.0002 141.5C62.0002 139.1 57.3335 116.167 59.0002 105L81.501 107C87.101 115 96.501 110.333 100.501 107C105.702 112.6 131.001 108 143.001 105C140.001 118.167 126 143.9 94.0002 141.5Z" fill="#151515"/>
<path id="Vector 423" d="M108.5 202C82.1 205.2 53.5 185.333 42.5 175C46 170.667 54.4 160.7 60 155.5C65.6 150.3 84.6667 147.333 93.5 146.5C93.5 148.5 96.5 152.6 108.5 153C120.5 153.4 125.167 145.833 126 142C153.6 140 168.833 163.167 173 175C162.5 182.667 134.9 198.8 108.5 202Z" fill="url(#paint4_linear_1016_125)"/>
<path id="Vector 420" d="M99 84.4999C99 73.6999 109.333 72.6666 114.5 73.4999C118.5 73.1666 126.7 75.1 127.5 85.5C128.3 95.9 117.833 98.8333 112.5 99C108 98.6666 99 95.2999 99 84.4999Z" fill="white"/>
<path id="Vector 422" d="M107.5 59C121.9 60.2 142.167 63.5 150.5 65C151 65.5 151.7 64.7 150.5 57.5C149.001 48.5001 132.5 28.5001 109 28.0001C90.2 27.6001 76.1669 34.5 71.5004 38C58.667 37.3334 33.7004 38.3 36.5004 47.5C39.3004 56.7 54.3337 58 61.5004 57.5C70.8337 57.5 93.1004 57.8 107.5 59Z" fill="url(#paint5_linear_1016_125)" stroke="black"/>
</g>
<defs>
<linearGradient id="paint0_linear_1016_125" x1="190.354" y1="108" x2="-2.12113e-08" y2="108" gradientUnits="userSpaceOnUse">
<stop stop-color="#BFF0FF"/>
<stop offset="1" stop-color="#82B4FF"/>
</linearGradient>
<linearGradient id="paint1_linear_1016_125" x1="178.916" y1="108" x2="15" y2="108" gradientUnits="userSpaceOnUse">
<stop stop-color="#A9FE81"/>
<stop offset="1" stop-color="#C0F0FF"/>
</linearGradient>
<linearGradient id="paint2_linear_1016_125" x1="183.791" y1="94.9363" x2="53.5" y2="94.9363" gradientUnits="userSpaceOnUse">
<stop stop-color="#DBA6F4"/>
<stop offset="1" stop-color="#A981FE"/>
</linearGradient>
<linearGradient id="paint3_linear_1016_125" x1="83.7386" y1="112.75" x2="15" y2="112.75" gradientUnits="userSpaceOnUse">
<stop stop-color="#DBA6F4"/>
<stop offset="1" stop-color="#A981FE"/>
</linearGradient>
<linearGradient id="paint4_linear_1016_125" x1="157.505" y1="172.112" x2="42.5" y2="172.112" gradientUnits="userSpaceOnUse">
<stop stop-color="#FEBD81"/>
<stop offset="0.489583" stop-color="#FFE598"/>
<stop offset="1" stop-color="#BFF4A6"/>
</linearGradient>
<linearGradient id="paint5_linear_1016_125" x1="137.523" y1="46.5517" x2="36.2832" y2="46.5517" gradientUnits="userSpaceOnUse">
<stop stop-color="#FE83EA"/>
<stop offset="1" stop-color="#FBAE96"/>
</linearGradient>
</defs>
</svg>
