<svg width="72" height="73" viewBox="0 0 72 73" fill="none" xmlns="http://www.w3.org/2000/svg">
<path id="Union" fill-rule="evenodd" clip-rule="evenodd" d="M23.2491 70.0352C29.9076 72.5571 37.1645 73.0478 44.1019 71.4453C53.3993 69.2871 61.4608 63.5288 66.5178 55.434C71.5748 47.3392 73.2142 37.5689 71.0763 28.2668C69.4739 21.3293 65.8502 15.0229 60.6636 10.1448C55.4769 5.26681 48.9603 2.03635 41.9377 0.861957C34.9151 -0.312433 27.7019 0.621986 21.2104 3.54707C14.7188 6.47216 9.24044 11.2565 5.46801 17.2951C1.69558 23.3338 -0.201471 30.3555 0.0167485 37.4722C0.234968 44.589 2.55865 51.4813 6.69397 57.2774C10.8293 63.0736 16.5905 67.5133 23.2491 70.0352ZM12.5044 14.2712C16.8751 9.62481 22.5256 6.37887 28.7412 4.9439C37.0745 3.0298 45.8268 4.49921 53.0782 9.0298C60.3295 13.5604 65.4877 20.7822 67.4213 29.111C68.857 35.3265 68.4173 41.8281 66.1578 47.7936C63.8983 53.7591 59.9206 58.9206 54.7276 62.6254C51.2966 65.0731 47.437 66.8122 43.374 67.767C43.3964 67.6492 43.4076 67.5289 43.407 67.4077C43.4067 67.3401 43.4027 67.273 43.3952 67.2064C44.1174 65.9406 44.8916 64.4164 45.6128 62.6645C48.3691 56.1015 49.1427 48.8869 47.8566 41.9085C51.8327 40.2293 53.7018 37.2935 54.5814 34.9328C54.7835 34.3892 54.9453 33.8464 55.0734 33.3114L61.4737 31.833C61.7194 31.7759 61.951 31.6699 62.1547 31.5213C62.3585 31.3727 62.5302 31.1845 62.6595 30.9681C62.7889 30.7516 62.8732 30.5112 62.9076 30.2614C62.9419 30.0116 62.9255 29.7574 62.8594 29.514C62.4488 28.122 61.7723 26.8228 60.8672 25.6882C59.1264 23.5492 56.768 22.5335 54.1377 22.7506C53.2336 20.5565 51.6894 17.9794 49.0714 15.9729C44.5559 12.5157 38.2605 11.6864 30.3543 13.5126L30.3087 13.5231C29.7507 13.6668 16.6508 17.1139 12.0355 23.2381C11.8239 23.5197 11.6958 23.8551 11.6659 24.2061C11.6361 24.5571 11.7056 24.9094 11.8667 25.2226C12.0277 25.5359 12.2737 25.7975 12.5765 25.9775C12.8793 26.1574 13.2266 26.2485 13.5788 26.2402C18.4878 26.1137 22.1226 26.5445 23.9911 27.0207C23.544 27.4632 23.1126 27.9235 22.698 28.401C20.5574 30.9056 18.3549 34.644 17.8122 39.7103C14.2158 42.8429 7.98334 44.9714 5.15997 45.8216C3.69943 41.0566 3.35761 35.9991 4.18611 31.0474C5.2388 24.7557 8.13357 18.9176 12.5044 14.2712ZM17.7941 44.3845C17.9031 45.5465 18.0975 46.7622 18.3909 48.0323C20.0114 55.0476 24.4632 60.9323 31.277 65.0779C33.4557 66.4167 35.7695 67.5158 38.1777 68.358C38.1283 68.4249 38.0787 68.4915 38.0287 68.558C37.681 68.58 37.3325 68.5963 36.9835 68.607C30.6074 68.8023 24.3166 67.1023 18.9066 63.7222C13.4967 60.3421 9.21059 55.4337 6.59035 49.6176C6.55133 49.531 6.51271 49.4442 6.47449 49.3573C9.07318 48.566 13.8978 46.8945 17.7941 44.3845ZM40.2888 65.106C36.0216 63.7126 24.7723 58.9914 22.0459 47.1881C20.5689 40.7937 21.748 35.2932 25.5474 30.8353C28.3637 27.5868 32.1035 25.2742 36.2681 24.2061C36.958 24.0434 37.6634 23.9548 38.3722 23.9418C37.6415 24.5816 37.1028 25.4118 36.8161 26.3398C36.5294 27.2677 36.5061 28.2571 36.7486 29.1976C36.8757 29.8728 37.1378 30.5155 37.5193 31.087C37.9007 31.6585 38.3936 32.1471 38.9684 32.5236C39.5432 32.9 40.188 33.1565 40.8643 33.2778C41.5407 33.3991 42.2345 33.3826 42.9043 33.2292C46.1138 32.4879 47.8787 29.9077 47.1957 26.9507C47.1 26.5332 46.9791 26.1219 46.8336 25.719C46.8081 25.6381 46.7774 25.5587 46.7418 25.4816C45.0629 21.2361 40.7765 19.3147 35.4238 20.5511C32.4732 21.3035 29.7016 22.5829 27.2354 24.3115C27.2198 24.3004 27.2041 24.2896 27.1881 24.279C25.3779 23.1601 21.5759 22.7119 18.3921 22.5568C22.6006 19.8223 28.6296 17.8349 31.2231 17.1619C46.1252 13.7272 50.283 21.5862 51.4359 26.5776C51.6385 27.4545 52.202 30.5499 51.0647 33.6243C50.0049 36.474 47.7764 38.3114 44.4336 39.0836C38.1339 40.5387 34.5149 36.468 34.0669 34.5282C33.9549 34.0436 33.655 33.6232 33.2331 33.3596C32.8112 33.0961 32.3019 33.0109 31.8173 33.1229C31.3326 33.2348 30.9122 33.5347 30.6487 33.9566C30.3851 34.3785 30.2999 34.8878 30.4119 35.3725C30.9045 37.5051 32.6605 39.7487 34.9962 41.2228C36.8987 42.4253 40.0014 43.6417 44.2366 42.9414C45.3134 49.0558 44.6126 55.3645 42.1983 61.1107C41.6542 62.4868 41.016 63.8216 40.2888 65.106ZM55.2415 26.4841C55.363 27.1828 55.4897 28.1837 55.5018 29.3624L58.4127 28.69C58.2562 28.4432 58.0843 28.2065 57.8979 27.9813C57.1319 27.0715 56.2673 26.5799 55.2415 26.4841ZM39.8021 28.3714C39.7042 27.951 39.7333 27.511 39.8856 27.1071C40.0379 26.7033 40.3066 26.3536 40.6576 26.1025C41.0087 25.8514 41.4264 25.7101 41.8578 25.6964C42.2892 25.6827 42.715 25.7973 43.0812 26.0257C43.4475 26.2541 43.7378 26.586 43.9153 26.9794C44.0929 27.3728 44.1498 27.8101 44.0788 28.2358C44.0077 28.6616 43.812 29.0567 43.5164 29.3712C43.2207 29.6857 42.8384 29.9054 42.4179 30.0025C41.8547 30.1326 41.263 30.0339 40.7725 29.7281C40.2821 29.4223 39.9331 28.9343 39.8021 28.3714Z" fill="#B5ACF9"/>
</svg>
