<svg width="87" height="87" viewBox="0 0 87 87" fill="none" xmlns="http://www.w3.org/2000/svg">
<g id="Group 281">
<path id="Vector" d="M75.4847 54.2111C74.0196 58.3864 71.7465 62.2322 68.795 65.5288C65.8435 68.8255 62.2716 71.5084 58.2831 73.4245C54.2946 75.3405 49.9677 76.4521 45.5496 76.6957C41.1315 76.9393 36.7086 76.3103 32.5336 74.8444C28.3591 73.3796 24.5139 71.1069 21.2177 68.156C17.9215 65.2051 15.2389 61.6338 13.3229 57.6461C11.407 53.6583 10.2954 49.3323 10.0514 44.9149C9.80749 40.4975 10.4361 36.0753 11.9013 31.9009C14.8593 23.4705 21.0452 16.5605 29.0981 12.6909C37.151 8.82141 46.4112 8.30936 54.8416 11.2674C59.0171 12.7311 62.8635 15.0031 66.1608 17.9536C69.4582 20.904 72.142 24.4752 74.059 28.463C75.9759 32.4509 77.0885 36.7773 77.3331 41.1952C77.5778 45.6131 76.9496 50.036 75.4847 54.2111Z" fill="#231F20"/>
<path id="Union" fill-rule="evenodd" clip-rule="evenodd" d="M34.0108 27.0894L34.3476 27.7293C34.4189 27.8677 34.4625 28.0187 34.4759 28.1738C34.4966 28.3086 34.4852 28.4464 34.4428 28.576C34.4112 28.6689 34.3611 28.7545 34.2953 28.8273C34.2295 28.9001 34.1495 28.9587 34.0602 28.9995C33.9751 29.044 33.8817 29.0704 33.7858 29.0771C33.69 29.0837 33.5938 29.0704 33.5034 29.038C33.3795 28.9924 33.2673 28.9198 33.1749 28.8256C33.0647 28.7157 32.9718 28.5896 32.8994 28.4519L32.5344 27.7588C32.2326 27.8186 31.9235 27.8315 31.6178 27.7971C31.2765 27.7622 30.9409 27.6855 30.6184 27.5687C30.1335 27.4227 29.6861 27.1733 29.3068 26.8377C28.9276 26.5021 28.6256 26.0883 28.4217 25.6249C28.0224 24.6346 28.0236 23.5279 28.425 22.5386C28.73 21.5142 29.4209 20.6483 30.352 20.1236C30.8011 19.8895 31.2954 19.7551 31.8012 19.7296C32.307 19.704 32.8123 19.7878 33.2828 19.9753C33.7666 20.1247 34.2129 20.3761 34.5914 20.7125C34.9699 21.049 35.272 21.4626 35.4772 21.9255C35.8771 22.9145 35.8763 24.0203 35.475 25.0086C35.3322 25.4233 35.1315 25.8156 34.8789 26.1741C34.6348 26.5192 34.3425 26.8274 34.0108 27.0894ZM33.0575 25.499C33.1948 25.3362 33.3166 25.1609 33.4211 24.9753C33.5302 24.7981 33.6234 24.6117 33.6994 24.418C33.9376 23.8415 33.9745 23.2016 33.8042 22.6016C33.7258 22.3515 33.5876 22.1244 33.4014 21.94C33.2153 21.7555 32.987 21.6193 32.7362 21.5431C32.4928 21.4465 32.2295 21.4105 31.969 21.4382C31.7085 21.4659 31.4587 21.5565 31.241 21.7022C30.7332 22.0643 30.3621 22.587 30.1879 23.1859C29.9584 23.7493 29.9296 24.3744 30.1064 24.9565C30.1894 25.2037 30.3296 25.4278 30.5155 25.6106C30.7015 25.7935 30.928 25.9298 31.1766 26.0086C31.2659 26.0397 31.358 26.0624 31.4515 26.0762C31.5478 26.0901 31.6453 26.0942 31.7424 26.0883C31.6439 25.9294 31.5699 25.7567 31.5227 25.5758C31.4965 25.4457 31.5053 25.311 31.5482 25.1854C31.6056 25.0074 31.7301 24.8588 31.8951 24.7709C31.9735 24.7282 32.0602 24.7029 32.1493 24.6969C32.2384 24.6909 32.3277 24.7043 32.4112 24.7361C32.5353 24.7834 32.6453 24.8616 32.7308 24.9634C32.8605 25.1284 32.9701 25.3082 33.0575 25.499ZM40.3943 30.9006C39.9515 30.9127 39.5112 30.8308 39.1024 30.6604C38.6763 30.5375 38.2811 30.326 37.9425 30.0398C37.6038 29.7535 37.3295 29.399 37.1375 28.9993C36.7994 28.233 36.8133 27.3286 37.179 26.2863L38.2414 23.2585C38.327 22.947 38.5038 22.6681 38.7491 22.4578C38.8525 22.3861 38.9726 22.3418 39.0979 22.3291C39.2232 22.3164 39.3496 22.3358 39.4654 22.3853C39.5868 22.419 39.6976 22.4829 39.7875 22.5711C39.8774 22.6593 39.9434 22.7688 39.9794 22.8895C40.0395 23.207 40.0033 23.5351 39.8755 23.8319L38.8771 26.677C38.6656 27.1675 38.6168 27.7128 38.7378 28.233C38.8097 28.4395 38.9304 28.6255 39.0895 28.7753C39.2487 28.9251 39.4417 29.0343 39.6521 29.0936C39.8527 29.1774 40.0705 29.2118 40.2872 29.1939C40.5039 29.176 40.7131 29.1063 40.8973 28.9908C41.3191 28.6621 41.6231 28.2058 41.7639 27.6899L42.7623 24.8448C42.8473 24.5326 43.0255 24.2537 43.2731 24.0452C43.3759 23.9733 43.4953 23.9287 43.6201 23.9158C43.7449 23.903 43.8709 23.9221 43.9862 23.9716C44.1079 24.0057 44.219 24.0699 44.3094 24.1582C44.3998 24.2465 44.4665 24.3561 44.5034 24.4769C44.5635 24.7944 44.5274 25.1225 44.3995 25.4193L43.3371 28.447C42.9692 29.4887 42.4139 30.203 41.6711 30.5901C41.2722 30.7827 40.8371 30.8885 40.3943 30.9006ZM46.1292 32.6617L48.0356 33.3306C48.3329 33.4582 48.6601 33.4994 48.9798 33.4496C49.0953 33.4203 49.201 33.3611 49.2864 33.278C49.3718 33.1949 49.4338 33.0908 49.4662 32.9761C49.511 32.867 49.5266 32.7481 49.5115 32.6311C49.4964 32.5141 49.4511 32.4031 49.38 32.309C49.1607 32.0714 48.8791 31.9003 48.5673 31.8151L47.1864 31.3306L47.6574 29.9881L48.8077 30.3917C49.104 30.5173 49.4291 30.5591 49.7476 30.5127C49.8629 30.4841 49.9687 30.4257 50.0545 30.3434C50.1402 30.2611 50.2028 30.1577 50.236 30.0436C50.2814 29.9338 50.2971 29.8139 50.2816 29.6961C50.2661 29.5782 50.22 29.4665 50.1478 29.3721C49.93 29.1345 49.6499 28.9627 49.3394 28.8762L48.1892 28.4726L48.6389 27.191L49.9718 27.6587C50.2683 27.7851 50.5942 27.8259 50.9128 27.7765C51.0275 27.748 51.1329 27.69 51.2184 27.6083C51.3038 27.5266 51.3665 27.424 51.4001 27.3106C51.4475 27.1993 51.4643 27.0774 51.4489 26.9575C51.4334 26.8376 51.3861 26.7239 51.312 26.6284C51.0952 26.3914 50.8162 26.22 50.5069 26.1335L48.6678 25.4882C48.3657 25.3464 48.021 25.3245 47.7033 25.4269C47.4164 25.6158 47.2133 25.908 47.1364 26.2428L45.3826 31.241C45.3148 31.3794 45.2753 31.5299 45.2665 31.6837C45.2576 31.8376 45.2795 31.9916 45.3309 32.1369C45.5274 32.3998 45.8099 32.5856 46.1292 32.6617ZM52.2452 34.8549C52.1305 34.8634 52.0154 34.8452 51.9089 34.8019C51.8048 34.7673 51.7088 34.712 51.6267 34.6393C51.5446 34.5665 51.4781 34.4779 51.4312 34.3788C51.3391 34.1481 51.3416 33.8904 51.4382 33.6615C51.4595 33.5875 51.4851 33.5148 51.5147 33.4437L51.5416 33.3929L51.5416 33.3929L51.5418 33.3925L51.5418 33.3925L51.542 33.3921L51.542 33.3921L51.542 33.3921L51.542 33.392C51.5765 33.327 51.6136 33.2567 51.6562 33.1839L54.2519 28.5962C54.3985 28.29 54.6323 28.0341 54.9239 27.8604C55.0555 27.8058 55.1968 27.778 55.3393 27.7786C55.4818 27.7791 55.6228 27.8081 55.754 27.8638C56.0265 27.9443 56.2599 28.1223 56.4098 28.3638C56.5503 28.6314 56.6019 28.9369 56.5572 29.2359L56.1455 33.9062L58.672 29.9672C58.8207 29.7095 59.0472 29.5056 59.319 29.3846C59.5811 29.29 59.8687 29.2949 60.1274 29.3983C60.2724 29.438 60.4078 29.5068 60.5253 29.6006C60.6427 29.6944 60.7397 29.8112 60.8104 29.9439C60.9353 30.2771 60.9547 30.6407 60.866 30.9853L59.9335 36.207C59.9376 36.2876 59.9128 36.3581 59.8892 36.4253L59.8263 36.6048C59.7925 36.7239 59.735 36.835 59.6573 36.9314C59.5796 37.0278 59.4832 37.1075 59.374 37.1657C59.2675 37.2157 59.1519 37.2433 59.0343 37.2466C58.9168 37.2499 58.7998 37.229 58.6907 37.1851C58.5863 37.1533 58.4906 37.0983 58.4106 37.0241C58.3307 36.9499 58.2686 36.8585 58.2292 36.7569C58.1453 36.4939 58.1416 36.2121 58.2183 35.947L59.2078 31.4758C58.2057 33.053 57.4846 34.1614 57.0443 34.801C56.7849 35.2197 56.4807 35.6089 56.1368 35.9615C56.0413 36.041 55.9227 36.0877 55.7986 36.0948C55.6448 36.0968 55.492 36.0689 55.3489 36.0125C55.1132 35.9507 54.9084 35.8046 54.7733 35.6018C54.668 35.3656 54.6348 35.1036 54.6777 34.8486L55.1686 30.055L53.1397 34.0427C53.0144 34.3248 52.8182 34.5696 52.5701 34.7532C52.4711 34.8117 52.3599 34.8465 52.2452 34.8549ZM61.6177 38.2185C61.7912 38.2804 61.9821 38.271 62.1486 38.1925C62.3541 38.0918 62.5308 37.9409 62.6624 37.7538L63.1632 37.1162L65.8161 38.0471L65.7841 38.7844C65.7604 39.028 65.7979 39.2737 65.8931 39.4991C65.99 39.6805 66.154 39.8168 66.35 39.879C66.5622 39.9628 66.799 39.9592 67.0085 39.8689C67.1085 39.8243 67.1978 39.7589 67.2706 39.6771C67.3434 39.5953 67.3979 39.4989 67.4305 39.3944C67.4559 39.3173 67.473 39.2376 67.4814 39.1568C67.4914 39.0668 67.4995 38.9617 67.5025 38.8404L67.4915 33.0466C67.4984 32.7399 67.4187 32.4375 67.2615 32.1742C67.1132 31.9371 66.8864 31.7595 66.6207 31.6723C66.3513 31.5686 66.0531 31.5677 65.7831 31.6698C65.4715 31.8065 65.2003 32.0212 64.9958 32.2932L61.3494 36.7065C61.2979 36.7676 61.253 36.8338 61.2153 36.9042C61.1696 36.983 61.1319 37.0662 61.1029 37.1526C61.0631 37.2555 61.0447 37.3655 61.0487 37.4757C61.0527 37.586 61.079 37.6943 61.1261 37.7941C61.1735 37.8955 61.2418 37.9857 61.3266 38.0588C61.4113 38.1319 61.5105 38.1864 61.6177 38.2185ZM65.9735 33.4244L65.8692 36.378L64.1518 35.7755L65.9735 33.4244ZM55.8212 45.5089C55.8102 45.5892 55.7921 45.6683 55.767 45.7454C55.7323 45.8499 55.676 45.9459 55.6016 46.0271C55.5272 46.1083 55.4365 46.1728 55.3354 46.2165C55.127 46.3063 54.8915 46.3103 54.6801 46.2277C54.5827 46.1969 54.4924 46.1472 54.4142 46.0815C54.336 46.0158 54.2715 45.9353 54.2244 45.8447C54.127 45.6198 54.0894 45.3736 54.1154 45.1299L54.1462 44.3958L51.4933 43.465L50.9925 44.1025C50.8598 44.2886 50.6833 44.4392 50.4787 44.5412C50.3109 44.6195 50.119 44.6285 49.9446 44.5661C49.8403 44.5327 49.7439 44.4782 49.6615 44.406C49.5791 44.3337 49.5125 44.2453 49.4658 44.1462C49.4191 44.0463 49.393 43.938 49.389 43.8278C49.385 43.7176 49.4032 43.6077 49.4426 43.5047C49.4721 43.4187 49.5087 43.3352 49.5518 43.2551C49.5902 43.1848 49.6362 43.1189 49.6891 43.0586L53.3356 38.6453C53.5404 38.3724 53.8119 38.1567 54.124 38.0187C54.3943 37.9195 54.6915 37.9215 54.9604 38.0244C55.226 38.1108 55.453 38.2871 55.6023 38.5231C55.7593 38.7871 55.8376 39.0905 55.828 39.3975L55.8402 45.1881C55.8372 45.3094 55.8323 45.4157 55.8212 45.5089ZM54.3048 39.7699L52.4831 42.121L54.1972 42.7224L54.3048 39.7699ZM64.501 44.4702C64.747 44.2598 64.9285 43.9842 65.0247 43.6752C65.1244 43.4293 65.1651 43.1635 65.1435 42.8991C65.1219 42.6347 65.0386 42.379 64.9004 42.1526C64.537 41.6447 64.012 41.2753 63.4113 41.1047L62.0656 40.6325C61.764 40.4886 61.4185 40.4667 61.1011 40.5712C60.8132 40.7592 60.609 41.051 60.531 41.3859L58.7772 46.3842C58.71 46.523 58.671 46.6738 58.6627 46.8278C58.6544 46.9818 58.6768 47.1359 58.7287 47.2812C58.9264 47.5411 59.2076 47.7249 59.5249 47.8016L61.1269 48.3637C61.7891 48.6417 62.529 48.6727 63.2121 48.4513C63.5061 48.3345 63.7697 48.1522 63.9827 47.9183C64.1957 47.6844 64.3526 47.405 64.4414 47.1014C64.6048 46.683 64.6181 46.221 64.4792 45.794C64.3163 45.368 64.0153 45.0089 63.6243 44.7743C63.9411 44.7667 64.2476 44.6604 64.501 44.4702ZM62.0895 42.1847L62.756 42.4185C62.9778 42.4828 63.1682 42.6265 63.2909 42.8221C63.3432 42.9119 63.3741 43.0125 63.3814 43.1161C63.3888 43.2197 63.3722 43.3236 63.333 43.4199C63.3022 43.5151 63.2506 43.6024 63.1821 43.6754C63.1135 43.7484 63.0297 43.8053 62.9366 43.8421C62.7244 43.9185 62.4916 43.9136 62.2828 43.8286L61.5971 43.588L62.0895 42.1847ZM62.2717 46.9266C61.9706 46.9942 61.6559 46.9656 61.372 46.8448L60.555 46.5581L61.1171 44.9561L61.9053 45.2327C62.2135 45.3158 62.4897 45.4892 62.6986 45.7306C62.7674 45.8336 62.8095 45.9522 62.8209 46.0756C62.8322 46.199 62.8126 46.3233 62.7637 46.4371C62.7305 46.5583 62.6672 46.6691 62.5796 46.7592C62.492 46.8493 62.3829 46.9157 62.2627 46.9522L62.2717 46.9266ZM43.4134 51.6107C43.4285 51.7276 43.4129 51.8466 43.368 51.9557C43.3352 52.0705 43.2726 52.1746 43.1867 52.2576C43.1007 52.3405 42.9944 52.3993 42.8785 52.428C42.5589 52.477 42.2319 52.4346 41.9354 52.3058L40.029 51.6369C39.7107 51.5623 39.4289 51.378 39.2328 51.1164C39.1807 50.9712 39.1582 50.8171 39.1665 50.663C39.1748 50.509 39.2138 50.3582 39.2813 50.2194L41.0351 45.2212C41.112 44.8864 41.3151 44.5942 41.602 44.4053C41.9195 44.3018 42.2646 44.3238 42.5665 44.4667L44.4056 45.112C44.7149 45.1984 44.9939 45.3698 45.2107 45.6068C45.2848 45.7024 45.332 45.816 45.3475 45.9359C45.363 46.0559 45.3462 46.1778 45.2988 46.289C45.2652 46.4024 45.2025 46.505 45.117 46.5867C45.0315 46.6685 44.9262 46.7264 44.8114 46.7549C44.4929 46.8043 44.1669 46.7635 43.8704 46.6371L42.5408 46.1705L42.0911 47.4521L43.2413 47.8557C43.5518 47.9422 43.8319 48.1141 44.0497 48.3517C44.1219 48.4461 44.168 48.5578 44.1835 48.6756C44.199 48.7935 44.1833 48.9133 44.1379 49.0231C44.1047 49.1373 44.0421 49.2406 43.9563 49.323C43.8706 49.4053 43.7648 49.4637 43.6495 49.4923C43.331 49.5387 43.0059 49.4968 42.7096 49.3712L41.5593 48.9676L41.0883 50.3101L42.4692 50.7946C42.7812 50.8793 43.063 51.0505 43.2819 51.2885C43.353 51.3826 43.3983 51.4937 43.4134 51.6107ZM46.8029 52.6352C46.702 52.7453 46.6246 52.875 46.5757 53.0161C46.526 53.1311 46.5059 53.2568 46.5175 53.3816C46.529 53.5064 46.5718 53.6263 46.6418 53.7302C46.8506 53.9755 47.1285 54.1521 47.4393 54.2367L50.7202 55.3879C51.0159 55.5156 51.3416 55.5576 51.6601 55.509C51.776 55.4803 51.8823 55.4215 51.9683 55.3386C52.0542 55.2557 52.1168 55.1515 52.1497 55.0367C52.1942 54.9272 52.2094 54.8079 52.1938 54.6907C52.1781 54.5735 52.1321 54.4624 52.0603 54.3684C51.842 54.1315 51.5615 53.9608 51.2508 53.8757L48.9407 53.0651L53.1481 50.2016L53.1948 50.1712C53.5304 49.9869 53.8039 49.7072 53.9806 49.3674C54.0311 49.2467 54.0456 49.114 54.0225 48.9852C53.9994 48.8565 53.9396 48.7371 53.8502 48.6416C53.5692 48.3747 53.2272 48.1805 52.854 48.0761L50.0793 47.1025C49.7843 46.9763 49.4599 46.9348 49.1426 46.9825C49.0287 47.0088 48.9238 47.0649 48.8388 47.1451C48.7537 47.2253 48.6916 47.3267 48.6586 47.4389C48.6123 47.5463 48.5958 47.6643 48.6108 47.7804C48.6258 47.8964 48.6717 48.0063 48.7438 48.0985C48.9666 48.3314 49.2482 48.4998 49.5588 48.586L51.6702 49.3268L47.3792 52.1825C47.1708 52.3115 46.9775 52.4633 46.8029 52.6352ZM60.9341 57.6519C60.9329 57.7588 60.9255 57.8655 60.9119 57.9715C60.9029 58.0568 60.8843 58.1408 60.8564 58.222C60.8212 58.324 60.7651 58.4175 60.6915 58.4964C60.6179 58.5754 60.5286 58.638 60.4293 58.6802C60.3256 58.7251 60.2141 58.7491 60.1011 58.7509C59.9881 58.7526 59.8759 58.732 59.7708 58.6903C59.674 58.6601 59.5841 58.6111 59.5063 58.5461C59.4284 58.4812 59.3642 58.4015 59.3172 58.3116C59.22 58.0867 59.1825 57.8405 59.2081 57.5968L59.2401 56.8596L56.5872 55.9287L56.0864 56.5662C55.9536 56.7522 55.7772 56.9029 55.5726 57.0049C55.4061 57.0835 55.2152 57.0928 55.0417 57.0309C54.9366 56.998 54.8394 56.9436 54.7565 56.8711C54.6735 56.7986 54.6065 56.7097 54.5597 56.6099C54.5137 56.51 54.4882 56.4018 54.4848 56.2918C54.4813 56.1818 54.5 56.0722 54.5397 55.9696C54.5693 55.8835 54.6058 55.8001 54.6489 55.72C54.6863 55.649 54.7324 55.583 54.7862 55.5235L58.4295 51.1091C58.6338 50.8367 58.904 50.6207 59.2147 50.4814C59.4862 50.3823 59.7844 50.3847 60.0543 50.4881C60.3195 50.5763 60.5459 50.7537 60.6951 50.99C60.8512 51.2533 60.9298 51.5553 60.9219 51.8613L60.9341 57.6519ZM59.3944 52.2357L57.5726 54.5868L59.29 55.1894L59.3944 52.2357ZM29.5998 32.3677L29.292 32.1373C28.722 31.7106 28.487 31.3547 28.5905 31.0599C28.6182 30.9727 28.6667 30.8935 28.7319 30.8292C28.7971 30.7649 28.877 30.7175 28.9646 30.691C29.1755 30.6299 29.4008 30.6417 29.6041 30.7247C29.8228 30.8165 30.0288 30.9359 30.2171 31.0801C30.4004 31.2219 30.6005 31.3404 30.8129 31.4331C31.0059 31.5131 31.2226 31.5142 31.4164 31.4362C31.5066 31.3927 31.5867 31.3306 31.6514 31.2541C31.716 31.1776 31.7638 31.0883 31.7917 30.9921C31.8384 30.823 31.8364 30.6441 31.7858 30.4761C31.7353 30.3081 31.6382 30.1578 31.5059 30.0426C31.1462 29.6721 30.6994 29.3977 30.2062 29.2447C29.5305 28.9745 28.7781 28.9673 28.0974 29.2244C27.7921 29.3442 27.5173 29.5307 27.2932 29.7701C27.0691 30.0096 26.9013 30.2961 26.802 30.6087C26.7108 30.8307 26.665 31.0687 26.6673 31.3088C26.6696 31.5488 26.72 31.7859 26.8155 32.0061C27.1331 32.5547 27.5795 33.0176 28.1163 33.3549C28.4491 33.5677 28.7403 33.8394 28.9757 34.1566C29.0297 34.2512 29.0618 34.3567 29.0698 34.4654C29.0778 34.574 29.0613 34.683 29.0216 34.7845C28.9887 34.8848 28.9345 34.9767 28.8627 35.054C28.7908 35.1313 28.7031 35.1921 28.6054 35.2322C28.3965 35.3185 28.1623 35.3214 27.9513 35.2402C27.6218 35.1103 27.3131 34.9329 27.035 34.7136C26.8205 34.5368 26.5861 34.3857 26.3365 34.2634C26.1252 34.177 25.8888 34.1752 25.6761 34.2584C25.5794 34.3009 25.493 34.3639 25.4229 34.4431C25.3529 34.5223 25.3009 34.6157 25.2705 34.717C25.1581 35.0374 25.2924 35.3724 25.6665 35.7627C26.0935 36.1867 26.6153 36.503 27.1887 36.6855C27.9094 36.9761 28.712 36.9898 29.4422 36.7241C29.7676 36.5963 30.0604 36.3973 30.2989 36.1416C30.5374 35.8859 30.7157 35.5801 30.8206 35.2466C31.0048 34.7706 30.9996 34.2421 30.8063 33.7698C30.5294 33.2077 30.1142 32.7253 29.5998 32.3677ZM37.148 40.0956C36.7059 40.1079 36.2661 40.0266 35.8576 39.8569C35.431 39.7342 35.0351 39.5226 34.6959 39.2362C34.3568 38.9497 34.0819 38.5948 33.8895 38.1948C33.5493 37.4277 33.5621 36.523 33.9278 35.4806L34.9891 32.456C35.0757 32.1433 35.254 31.8637 35.5011 31.6533C35.6043 31.5809 35.7244 31.5363 35.8498 31.5236C35.9752 31.5109 36.1018 31.5306 36.2174 31.5808C36.3388 31.6144 36.4496 31.6783 36.5395 31.7665C36.6294 31.8547 36.6954 31.9643 36.7314 32.085C36.7914 32.4036 36.7548 32.7328 36.6264 33.0305L35.6292 35.8724C35.4175 36.364 35.3683 36.9102 35.4887 37.4317C35.5606 37.6381 35.6813 37.8241 35.8404 37.974C35.9996 38.1238 36.1926 38.233 36.403 38.2923C36.6036 38.376 36.8215 38.4104 37.0381 38.3925C37.2548 38.3746 37.464 38.3049 37.6482 38.1894C38.0703 37.8594 38.3746 37.4021 38.516 36.8854L39.5132 34.0434C39.5982 33.73 39.7768 33.4499 40.0251 33.2407C40.1279 33.1687 40.2473 33.1242 40.3721 33.1113C40.4969 33.0984 40.623 33.1176 40.7383 33.167C40.8602 33.2006 40.9716 33.2646 41.0621 33.353C41.1525 33.4414 41.2191 33.5513 41.2555 33.6724C41.3155 33.991 41.2789 34.3202 41.1504 34.6179L40.0891 37.6425C39.7213 38.6841 39.1659 39.3985 38.4232 39.7856C38.0247 39.9776 37.5902 40.0833 37.148 40.0956ZM46.2157 42.8539C46.7218 42.7652 47.0398 42.5565 47.1544 42.2297C47.1868 42.1405 47.2012 42.0457 47.1968 41.9509C47.1924 41.8561 47.1692 41.7631 47.1288 41.6773C47.0971 41.5935 47.0479 41.5174 46.9845 41.4542C46.921 41.391 46.8447 41.342 46.7608 41.3107C46.5294 41.2636 46.2926 41.2483 46.0571 41.2653C45.7471 41.282 45.4367 41.2425 45.1407 41.1489C44.895 41.0725 44.6699 40.9413 44.4823 40.7651C44.2948 40.589 44.1497 40.3725 44.0581 40.1321C43.8766 39.5731 43.9002 38.9677 44.1247 38.4246C44.2927 37.8488 44.6526 37.3478 45.1446 37.0048C45.3581 36.8667 45.6014 36.7813 45.8544 36.7556C46.1074 36.7298 46.3629 36.7646 46.5999 36.8569C46.8626 36.9589 47.1096 37.0976 47.3333 37.269C47.5101 37.4093 47.7024 37.5287 47.9066 37.6249C47.9968 37.6554 48.0925 37.6666 48.1874 37.6577C48.2822 37.6488 48.3742 37.6201 48.4572 37.5734C48.5456 37.5297 48.6245 37.4691 48.6894 37.3949C48.7543 37.3208 48.804 37.2345 48.8356 37.1412C48.939 36.8464 48.8282 36.5161 48.5032 36.1501C48.1288 35.7525 47.6587 35.4574 47.1378 35.2932C46.6823 35.1192 46.195 35.0442 45.7083 35.0732C45.2216 35.1022 44.7467 35.2346 44.3151 35.4615C43.4042 35.956 42.7242 36.7889 42.4219 37.7803C42.0304 38.7436 42.0304 39.8218 42.422 40.7851C42.6184 41.233 42.9092 41.6332 43.2746 41.9583C43.64 42.2833 44.0714 42.5257 44.5391 42.6686C45.0725 42.8744 45.6502 42.9383 46.2157 42.8539ZM33.5958 41.8802C34.0529 41.8552 34.5104 41.9206 34.9423 42.0726C35.8141 42.3785 36.5287 43.0183 36.9289 43.8511C37.3291 44.6839 37.382 45.6415 37.0761 46.5134C36.7701 47.3855 36.1303 48.1005 35.2975 48.5012C34.4646 48.9019 33.5067 48.9556 32.6342 48.6505C31.7615 48.3442 31.0462 47.7039 30.6456 46.8703C30.2451 46.0367 30.1921 45.0781 30.4983 44.2054C30.6499 43.7734 30.8851 43.3755 31.1905 43.0345C31.4959 42.6935 31.8655 42.416 32.2783 42.218C32.691 42.0199 33.1387 41.9051 33.5958 41.8802ZM48.7426 63.4246C48.887 63.4749 49.04 63.4955 49.1926 63.485C49.3451 63.4745 49.4939 63.4332 49.63 63.3635C49.7661 63.2939 49.8867 63.1974 49.9844 63.0799C50.0822 62.9623 50.1551 62.8261 50.1987 62.6796C50.2551 62.5365 50.2824 62.3836 50.2787 62.2298C50.2751 62.0761 50.2407 61.9246 50.1775 61.7843C50.1143 61.6441 50.0237 61.5179 49.911 61.4133C49.7982 61.3087 49.6656 61.2277 49.5211 61.1752C49.3771 61.1255 49.2246 61.1054 49.0727 61.1161C48.9207 61.1267 48.7725 61.168 48.637 61.2374C48.5014 61.3068 48.3812 61.4028 48.2837 61.5198C48.1861 61.6368 48.1132 61.7722 48.0693 61.918C48.0129 62.061 47.9856 62.2138 47.989 62.3675C47.9924 62.5211 48.0265 62.6726 48.0892 62.8129C48.1519 62.9532 48.242 63.0796 48.3542 63.1846C48.4664 63.2896 48.5985 63.3712 48.7426 63.4246ZM56.7785 69.0253L38.394 62.5746L40.9291 55.3495L59.3136 61.8003L56.7785 69.0253ZM53.9544 61.6292L52.7305 61.1997L51.2622 65.3841L52.3965 65.7821L53.2351 63.3919L53.7289 65.3896L53.7545 65.3986L55.3959 64.1357L54.5527 66.5387L55.7062 66.9434L57.1744 62.759L55.9505 62.3295L54.3852 63.6011L53.9544 61.6292ZM47.3429 60.7093C47.1348 60.9366 46.974 61.2031 46.87 61.4932L46.8539 61.4875C46.7531 61.7784 46.7117 62.0866 46.7321 62.3938C46.7525 62.7009 46.8343 63.0009 46.9727 63.2759C47.111 63.5509 47.3031 63.7954 47.5376 63.9949C47.7721 64.1943 48.0442 64.3447 48.3379 64.4372C48.6268 64.5486 48.9351 64.6012 49.2446 64.5918C49.5541 64.5823 49.8587 64.5111 50.1402 64.3822C50.4218 64.2534 50.6748 64.0695 50.8843 63.8414C51.0938 63.6134 51.2555 63.3457 51.3601 63.0542C51.4609 62.7634 51.5023 62.4552 51.4819 62.148C51.4615 61.8408 51.3797 61.5409 51.2414 61.2659C51.103 60.9908 50.9109 60.7464 50.6764 60.5469C50.4419 60.3474 50.1698 60.197 49.8761 60.1046C49.5878 59.9958 49.2806 59.9454 48.9726 59.9565C48.6646 59.9676 48.3619 60.0398 48.0821 60.1691C47.8023 60.2983 47.5511 60.4819 47.3429 60.7093ZM43.0881 59.2213C42.8826 59.4482 42.725 59.7143 42.6247 60.0036L42.6468 60.0329C42.5415 60.3162 42.4944 60.6179 42.5082 60.9198C42.522 61.2218 42.5965 61.5179 42.7272 61.7904C42.8579 62.0629 43.0422 62.3064 43.269 62.5062C43.4958 62.706 43.7605 62.858 44.0474 62.9533C44.4059 63.097 44.7954 63.1453 45.1781 63.0935C45.5608 63.0418 45.9236 62.8917 46.231 62.6579L45.5776 61.7306C45.4169 61.8519 45.2285 61.9313 45.0294 61.9613C44.8304 61.9914 44.6269 61.9712 44.4376 61.9027C44.2989 61.8492 44.1725 61.7681 44.0662 61.6642C43.9598 61.5603 43.8757 61.4359 43.8189 61.2985C43.7621 61.1612 43.7338 61.0137 43.7358 60.865C43.7377 60.7163 43.7699 60.5696 43.8303 60.4338C43.8695 60.2916 43.9369 60.1589 44.0285 60.0434C44.1202 59.9279 44.2342 59.832 44.3637 59.7616C44.4932 59.6911 44.6356 59.6475 44.7824 59.6334C44.9291 59.6192 45.0772 59.6348 45.2178 59.6792C45.3979 59.7449 45.5595 59.8529 45.6891 59.9942C45.8186 60.1355 45.9123 60.3058 45.9622 60.4909L47.0709 60.1207C46.9718 59.7679 46.7851 59.446 46.5283 59.1847C46.2714 58.9234 45.9526 58.7314 45.6016 58.6263C45.3162 58.5156 45.0114 58.4634 44.7054 58.4731C44.3994 58.4827 44.0984 58.554 43.8206 58.6825C43.5427 58.8111 43.2936 58.9943 43.0881 59.2213ZM41.9954 60.8227L40.8131 60.4079L40.4263 61.582L41.5862 61.989L41.9954 60.8227Z" fill="white"/>
</g>
</svg>
